<?xml version="1.0" encoding="utf-8"?>
<!-- Generator: Adobe Illustrator 20.1.0, SVG Export Plug-In . SVG Version: 6.00 Build 0)  -->
<svg version="1.1" xmlns="http://www.w3.org/2000/svg" xmlns:xlink="http://www.w3.org/1999/xlink" x="0px" y="0px"
	 viewBox="0 0 2800 2800" style="enable-background:new 0 0 2800 2800;" xml:space="preserve">
<style type="text/css">
	.st0{fill:#353347;}
	.st1{clip-path:url(#SVGID_2_);fill:#F7C0C3;}
	.st2{clip-path:url(#SVGID_2_);fill:#F6BDBB;}
	.st3{clip-path:url(#SVGID_2_);fill:#DD5F83;}
	.st4{clip-path:url(#SVGID_2_);fill:#EC6562;}
	.st5{clip-path:url(#SVGID_2_);fill:#FAC96E;}
	.st6{clip-path:url(#SVGID_2_);fill:#449EBA;}
	.st7{clip-path:url(#SVGID_2_);fill:#508ECB;}
	.st8{clip-path:url(#SVGID_2_);fill:#2A4194;}
	.st9{clip-path:url(#SVGID_2_);}
	.st10{fill:#396EB5;}
	.st11{fill:#3860AA;}
	.st12{clip-path:url(#SVGID_2_);fill:#396EB5;}
	.st13{fill:#508ECB;}
	.st14{fill:#2B8EBA;}
	.st15{fill:#272E63;}
	.st16{fill:#25387E;}
	.st17{clip-path:url(#SVGID_2_);fill:#272E63;}
	.st18{fill:#ED7B62;}
	.st19{fill:#EC6076;}
	.st20{fill:#EB5878;}
	.st21{fill:#E07494;}
	.st22{clip-path:url(#SVGID_2_);fill:#E87F9A;}
	.st23{clip-path:url(#SVGID_2_);fill:#E5E8F3;}
	.st24{fill:#BABFD3;}
	.st25{fill:#CBCEDB;}
	.st26{clip-path:url(#SVGID_2_);fill:#AAB2CB;}
	.st27{fill:#892E58;}
	.st28{fill:#EA5573;}
	.st29{fill:#FFDE53;}
	.st30{fill:#F2946B;}
	.st31{clip-path:url(#SVGID_2_);fill:#F2946B;}
	.st32{fill:none;}
	.st33{fill:#FDFDFD;}
	.st34{font-family:'MyriadPro-Regular';}
	.st35{font-size:160px;}
	.st36{letter-spacing:32;}
</style>
<g id="Capa_2">
	<rect x="-81.7" y="-81.7" class="st0" width="2963.4" height="2963.4"/>
</g>
<g id="Capa_1">
	<g>
		<defs>
			<rect id="SVGID_1_" x="-81.7" y="-81.7" width="2963.4" height="2963.4"/>
		</defs>
		<clipPath id="SVGID_2_">
			<use xlink:href="#SVGID_1_"  style="overflow:visible;"/>
		</clipPath>
		<path class="st1" d="M3283.7,1774l-848.6,848.6c-32.7,32.7-86.1,32.7-118.8,0h0c-32.7-32.7-32.7-86.1,0-118.8l848.6-848.6
			c32.7-32.7,86.1-32.7,118.8,0l0,0C3316.4,1687.9,3316.4,1741.3,3283.7,1774z"/>
		<path class="st2" d="M2400.4,1590.4L1551.8,2439c-32.7,32.7-86.1,32.7-118.8,0l0,0c-32.7-32.7-32.7-86.1,0-118.8l848.6-848.6
			c32.7-32.7,86.1-32.7,118.8,0v0C2433.1,1504.3,2433.1,1557.7,2400.4,1590.4z"/>
		<path class="st3" d="M2199.2,1646.6l-315.5,315.5c-32.7,32.7-86.1,32.7-118.8,0l0,0c-32.7-32.7-32.7-86.1,0-118.8l315.5-315.5
			c32.7-32.7,86.1-32.7,118.8,0v0C2231.9,1560.5,2231.9,1613.9,2199.2,1646.6z"/>
		<path class="st4" d="M2143,1340.5l-848.6,848.6c-32.7,32.7-86.1,32.7-118.8,0l0,0c-32.7-32.7-32.7-86.1,0-118.8l848.6-848.6
			c32.7-32.7,86.1-32.7,118.8,0v0C2175.7,1254.4,2175.7,1307.8,2143,1340.5z"/>
		<path class="st5" d="M2465.8,956.1l-848.6,848.6c-32.7,32.7-86.1,32.7-118.8,0l0,0c-32.7-32.7-32.7-86.1,0-118.8L2347,837.3
			c32.7-32.7,86.1-32.7,118.8,0l0,0C2498.4,869.9,2498.4,923.4,2465.8,956.1z"/>
		<path class="st6" d="M1957.6,1155.1L1109,2003.7c-32.7,32.7-86.1,32.7-118.8,0l0,0c-32.7-32.7-32.7-86.1,0-118.8l848.6-848.6
			c32.7-32.7,86.1-32.7,118.8,0v0C1990.2,1068.9,1990.2,1122.4,1957.6,1155.1z"/>
		<path class="st7" d="M1919.9,629.6l-315.5,315.5c-32.7,32.7-86.1,32.7-118.8,0l0,0c-32.7-32.7-32.7-86.1,0-118.8l315.5-315.5
			c32.7-32.7,86.1-32.7,118.8,0l0,0C1952.6,543.5,1952.6,596.9,1919.9,629.6z"/>
		<path class="st8" d="M1517.1,1244l-848.6,848.6c-32.7,32.7-86.1,32.7-118.8,0l0,0c-32.7-32.7-32.7-86.1,0-118.8l848.6-848.6
			c32.7-32.7,86.1-32.7,118.8,0l0,0C1549.8,1157.9,1549.8,1211.4,1517.1,1244z"/>
		<g class="st9">
			<path class="st10" d="M1517.1,812.8c-32.7-32.7-86.1-32.7-118.8,0l-432.7,432.7c-32.7,32.7-32.7,86.1,0,118.8l0,0L1517.1,812.8
				L1517.1,812.8z"/>
			<path class="st11" d="M1084.5,1364.2l432.7-432.7c32.7-32.7,32.7-86.1,0-118.8l0,0l-551.4,551.4l0,0
				C998.4,1396.9,1051.8,1396.9,1084.5,1364.2z"/>
		</g>
		<path class="st12" d="M900.3,1548.4L900.3,1548.4c-32.7,32.7-86.2,32.7-118.8,0.1l0,0c-32.7-32.7-32.7-86.1,0-118.8l0.1-0.1
			c32.7-32.7,86.1-32.7,118.8,0l0,0C933,1462.3,933,1515.7,900.3,1548.4z"/>
		<g class="st9">
			<path class="st13" d="M2160.6,642.9c-32.7-32.7-86.1-32.7-118.8,0l-797,797c-32.7,32.7-32.7,86.1,0,118.8l0,0L2160.6,642.9
				L2160.6,642.9z"/>
			<path class="st14" d="M1363.6,1558.6l797-797c32.7-32.7,32.7-86.1,0-118.8l0,0l-915.8,915.8l0,0
				C1277.5,1591.3,1331,1591.3,1363.6,1558.6z"/>
		</g>
		<g class="st9">
			<path class="st15" d="M1282.9,1793.7c-32.7-32.7-86.1-32.7-118.8,0l-432.7,432.7c-32.7,32.7-32.7,86.1,0,118.8l0,0L1282.9,1793.7
				L1282.9,1793.7z"/>
			<path class="st16" d="M850.3,2345.2l432.7-432.7c32.7-32.7,32.7-86.1,0-118.8l0,0l-551.4,551.4l0,0
				C764.2,2377.8,817.6,2377.8,850.3,2345.2z"/>
		</g>
		<path class="st17" d="M1459.4,1735.9L1459.4,1735.9c-32.7,32.7-86.2,32.7-118.8,0.1l0,0c-32.7-32.7-32.7-86.1,0-118.8l0.1-0.1
			c32.7-32.7,86.1-32.7,118.8,0l0,0C1492.1,1649.8,1492.1,1703.3,1459.4,1735.9z"/>
		<g class="st9">
			<path class="st18" d="M1892.2,1617.3c-32.7-32.7-86.1-32.7-118.8,0L1340.8,2050c-32.7,32.7-32.7,86.1,0,118.8l0,0L1892.2,1617.3
				L1892.2,1617.3z"/>
			<path class="st19" d="M1459.5,2168.8l432.7-432.7c32.7-32.7,32.7-86.1,0-118.8l0,0l-551.4,551.4l0,0
				C1373.4,2201.4,1426.9,2201.4,1459.5,2168.8z"/>
		</g>
		<g class="st9">
			<path class="st20" d="M2922.3,736.3c-32.7-32.7-86.1-32.7-118.8,0l-797,797c-32.7,32.7-32.7,86.1,0,118.8l0,0L2922.3,736.3
				L2922.3,736.3z"/>
			<path class="st21" d="M2125.3,1652.1l797-797c32.7-32.7,32.7-86.1,0-118.8l0,0l-915.8,915.8l0,0
				C2039.2,1684.7,2092.7,1684.7,2125.3,1652.1z"/>
		</g>
		<path class="st22" d="M1636.4,2252.6L1636.4,2252.6c-32.7,32.7-86.2,32.7-118.8,0.1l0,0c-32.7-32.7-32.7-86.1,0-118.8l0.1-0.1
			c32.7-32.7,86.1-32.7,118.8,0l0,0C1669.1,2166.5,1669.1,2220,1636.4,2252.6z"/>
		<path class="st23" d="M2929.3,1432.6l-848.6,848.6c-32.7,32.7-86.1,32.7-118.8,0h0c-32.7-32.7-32.7-86.1,0-118.8l848.6-848.6
			c32.7-32.7,86.1-32.7,118.8,0l0,0C2962,1346.5,2962,1399.9,2929.3,1432.6z"/>
		<g class="st9">
			<path class="st24" d="M2034.6,2248.9c-32.7-32.7-86.1-32.7-118.8,0l-432.7,432.7c-32.7,32.7-32.7,86.1,0,118.8l0,0L2034.6,2248.9
				L2034.6,2248.9z"/>
			<path class="st25" d="M1601.9,2800.3l432.7-432.7c32.7-32.7,32.7-86.1,0-118.8l0,0l-551.4,551.4l0,0
				C1515.8,2833,1569.3,2833,1601.9,2800.3z"/>
		</g>
		<path class="st26" d="M2330.3,2031.6L2330.3,2031.6c-32.7,32.7-86.2,32.7-118.8,0.1l0,0c-32.7-32.7-32.7-86.1,0-118.8l0.1-0.1
			c32.7-32.7,86.1-32.7,118.8,0l0,0C2363,1945.5,2363,1999,2330.3,2031.6z"/>
		<g class="st9">
			<path class="st27" d="M1286.5,2342.1c-32.7-32.7-86.1-32.7-118.8,0l-797,797c-32.7,32.7-32.7,86.1,0,118.8h0L1286.5,2342.1
				L1286.5,2342.1z"/>
			<path class="st28" d="M489.5,3257.9l797-797c32.7-32.7,32.7-86.1,0-118.8l0,0l-915.8,915.8l0,0
				C403.4,3290.5,456.9,3290.5,489.5,3257.9z"/>
		</g>
		<g class="st9">
			<path class="st29" d="M2963.2,1735.4c-32.7-32.7-86.1-32.7-118.8,0l-797,797c-32.7,32.7-32.7,86.1,0,118.8l0,0L2963.2,1735.4
				L2963.2,1735.4z"/>
			<path class="st30" d="M2166.2,2651.2l797-797c32.7-32.7,32.7-86.1,0-118.8l0,0l-915.8,915.8l0,0
				C2080.1,2683.8,2133.6,2683.8,2166.2,2651.2z"/>
		</g>
		<path class="st31" d="M2010.1,2818.9L2010.1,2818.9c-32.7,32.7-86.2,32.7-118.8,0.1l0,0c-32.7-32.7-32.7-86.1,0-118.8l0.1-0.1
			c32.7-32.7,86.1-32.7,118.8,0l0,0C2042.8,2732.8,2042.8,2786.3,2010.1,2818.9z"/>
		<path class="st5" d="M3063.5,2137.5l-848.6,848.6c-32.7,32.7-86.1,32.7-118.8,0v0c-32.7-32.7-32.7-86.1,0-118.8l848.6-848.6
			c32.7-32.7,86.1-32.7,118.8,0v0C3096.1,2051.4,3096.1,2104.9,3063.5,2137.5z"/>
	</g>
</g>
</svg>
